<svg xmlns="http://www.w3.org/2000/svg" xmlns:xlink="http://www.w3.org/1999/xlink" version="1.1" width="256" height="256" viewBox="0 0 256 256" xml:space="preserve">
<g style="stroke: none; stroke-width: 0; stroke-dasharray: none; stroke-linecap: butt; stroke-linejoin: miter; stroke-miterlimit: 10; fill: none; fill-rule: nonzero; opacity: 1;" transform="translate(1.4065934065934016 1.4065934065934016) scale(2.81 2.81)">
	<path d="M 45 0 C 20.187 0 0 20.187 0 45 c 0 24.813 20.187 45 45 45 c 24.813 0 45 -20.187 45 -45 C 90 20.187 69.813 0 45 0 z M 45 88 C 21.29 88 2 68.71 2 45 C 2 21.29 21.29 2 45 2 c 23.71 0 43 19.29 43 43 C 88 68.71 68.71 88 45 88 z" style="stroke: none; stroke-width: 1; stroke-dasharray: none; stroke-linecap: butt; stroke-linejoin: miter; stroke-miterlimit: 10; fill: rgb(0,0,0); fill-rule: nonzero; opacity: 1;" transform=" matrix(1 0 0 1 0 0) " stroke-linecap="round"/>
	<path d="M 45 16.963 c -15.459 0 -28.037 12.578 -28.037 28.037 c 0 6.376 2.143 12.258 5.742 16.974 l -0.009 0.013 l 0.482 0.598 c 0.026 0.032 0.055 0.062 0.082 0.095 c 0.349 0.428 0.708 0.846 1.081 1.252 c 0.064 0.069 0.131 0.136 0.195 0.205 c 0.332 0.355 0.674 0.701 1.024 1.038 c 0.08 0.077 0.161 0.154 0.242 0.23 c 5.021 4.727 11.775 7.633 19.199 7.633 c 7.423 0 14.176 -2.905 19.196 -7.63 c 0.084 -0.079 0.167 -0.159 0.25 -0.239 c 0.348 -0.336 0.688 -0.679 1.018 -1.032 c 0.065 -0.069 0.132 -0.136 0.197 -0.206 c 0.374 -0.407 0.734 -0.826 1.083 -1.255 c 0.026 -0.031 0.054 -0.06 0.079 -0.092 l 0.481 -0.598 l -0.009 -0.012 c 3.598 -4.715 5.74 -10.597 5.74 -16.972 C 73.037 29.541 60.46 16.963 45 16.963 z M 59.138 54.185 l 5.637 7.725 c -0.054 0.063 -0.109 0.127 -0.164 0.19 c -0.232 0.265 -0.468 0.526 -0.711 0.782 c -0.085 0.09 -0.17 0.18 -0.257 0.269 c -0.31 0.318 -0.626 0.63 -0.952 0.931 c -0.013 0.013 -0.026 0.026 -0.04 0.038 c -2.24 2.063 -4.837 3.728 -7.67 4.905 l -5.768 -7.903 c -0.993 -1.36 -2.528 -2.14 -4.213 -2.14 c 0 0 -0.001 0 -0.001 0 c -1.685 0 -3.22 0.78 -4.212 2.141 l -5.767 7.903 c -2.832 -1.177 -5.429 -2.841 -7.669 -4.903 c -0.016 -0.015 -0.032 -0.031 -0.048 -0.046 c -0.322 -0.298 -0.635 -0.606 -0.941 -0.92 c -0.091 -0.094 -0.181 -0.189 -0.27 -0.284 c -0.235 -0.248 -0.466 -0.502 -0.691 -0.76 c -0.059 -0.067 -0.117 -0.134 -0.175 -0.202 l 5.638 -7.726 c 1.002 -1.374 1.272 -3.088 0.742 -4.703 s -1.765 -2.835 -3.386 -3.347 l -9.166 -2.889 c 0.274 -4.093 1.508 -8.061 3.594 -11.56 l 9.515 3 c 1.603 0.505 3.298 0.225 4.653 -0.769 c 1.354 -0.993 2.131 -2.526 2.131 -4.206 V 19.701 c 4.064 -0.979 8.041 -0.979 12.105 0 v 10.012 c 0 1.68 0.777 3.213 2.132 4.206 c 1.354 0.993 3.05 1.271 4.652 0.768 l 9.514 -3 c 2.088 3.5 3.321 7.466 3.596 11.559 l -9.164 2.89 c -1.622 0.512 -2.856 1.731 -3.387 3.348 C 57.864 51.098 58.135 52.812 59.138 54.185 z M 66.223 29.945 l -8.987 2.834 c -0.985 0.31 -2.033 0.14 -2.868 -0.473 c -0.836 -0.612 -1.314 -1.558 -1.314 -2.593 v -9.469 C 58.416 21.993 63.016 25.438 66.223 29.945 z M 36.948 20.243 v 9.469 c 0 1.036 -0.479 1.98 -1.314 2.593 c -0.835 0.612 -1.881 0.785 -2.869 0.474 l -8.988 -2.835 C 26.983 25.438 31.584 21.992 36.948 20.243 z M 18.971 45.316 l 8.648 2.727 c 1 0.314 1.761 1.066 2.088 2.062 s 0.161 2.053 -0.457 2.899 l -5.311 7.278 C 20.871 56.067 19.038 50.901 18.971 45.316 z M 36.96 69.761 l 5.444 -7.46 c 0.612 -0.839 1.559 -1.32 2.597 -1.32 c 0 0 0.001 0 0.001 0 c 1.038 0 1.985 0.48 2.598 1.319 l 5.444 7.46 c -2.535 0.825 -5.236 1.277 -8.043 1.277 C 42.194 71.037 39.494 70.586 36.96 69.761 z M 60.753 53.005 c -0.618 -0.847 -0.785 -1.903 -0.458 -2.898 c 0.327 -0.996 1.089 -1.748 2.089 -2.063 l 8.645 -2.727 c -0.067 5.584 -1.9 10.749 -4.967 14.965 L 60.753 53.005 z" style="stroke: none; stroke-width: 1; stroke-dasharray: none; stroke-linecap: butt; stroke-linejoin: miter; stroke-miterlimit: 10; fill: rgb(0,0,0); fill-rule: nonzero; opacity: 1;" transform=" matrix(1 0 0 1 0 0) " stroke-linecap="round"/>
	<path d="M 45 36.948 c -4.44 0 -8.052 3.612 -8.052 8.052 c 0 4.44 3.612 8.053 8.052 8.053 c 4.44 0 8.053 -3.612 8.053 -8.053 C 53.053 40.56 49.44 36.948 45 36.948 z M 45 51.053 c -3.337 0 -6.052 -2.715 -6.052 -6.053 c 0 -3.337 2.715 -6.052 6.052 -6.052 c 3.338 0 6.053 2.715 6.053 6.052 C 51.053 48.338 48.338 51.053 45 51.053 z" style="stroke: none; stroke-width: 1; stroke-dasharray: none; stroke-linecap: butt; stroke-linejoin: miter; stroke-miterlimit: 10; fill: rgb(0,0,0); fill-rule: nonzero; opacity: 1;" transform=" matrix(1 0 0 1 0 0) " stroke-linecap="round"/>
</g>
</svg>